<?xml version="1.0" encoding="iso-8859-1"?>
<!-- Generator: Adobe Illustrator 22.1.0, SVG Export Plug-In . SVG Version: 6.00 Build 0)  -->
<svg version="1.1" id="Layer_1" xmlns="http://www.w3.org/2000/svg" xmlns:xlink="http://www.w3.org/1999/xlink" x="0px" y="0px"
	 width="2081.584px" height="677.864px" viewBox="0 0 2081.584 677.864" enable-background="new 0 0 2081.584 677.864"
	 xml:space="preserve">
<g>
	<g>
		<path fill="#FFFFFF" d="M555.127,267.522c-10.773-8.618-23.085-14.621-36.474-17.852c-7.695-1.847-15.39-2.616-23.239-2.924
			c-5.848-0.154-11.696-0.154-17.545-0.154c-27.548,0-55.25,0-82.798,0c-5.848,0-11.696,0-17.545,0.154
			c-7.849,0.308-15.544,1.077-23.239,2.924c-13.389,3.232-25.701,9.234-36.474,17.852c-21.7,17.391-34.32,43.708-34.32,71.41
			c0,27.856,12.62,54.019,34.32,71.41c10.773,8.618,23.085,14.621,36.474,17.852c7.695,1.847,15.39,2.616,23.239,2.924
			c5.848,0.154,11.696,0.154,17.545,0.154c27.548,0,55.25,0,82.798,0c5.848,0,11.696,0,17.545-0.154
			c7.849-0.308,15.544-1.077,23.239-2.924c13.389-3.232,25.701-9.234,36.474-17.852c21.7-17.391,34.32-43.708,34.32-71.41
			C589.447,311.076,576.827,284.913,555.127,267.522z M514.805,363.71c-4.155,2.77-8.618,4.463-13.543,5.233
			c-4.925,0.77-9.696,0.616-14.621,0.616c-33.396,0-66.947,0-100.343,0c-4.925,0-9.696,0.154-14.621-0.616
			s-9.388-2.462-13.543-5.233c-8.157-5.694-13.082-14.928-13.082-24.778c0-10.004,4.925-19.238,13.082-24.778
			c4.155-2.77,8.618-4.463,13.543-5.233s9.696-0.616,14.621-0.616c33.396,0,66.947,0,100.343,0c4.925,0,9.696-0.154,14.621,0.616
			c4.925,0.77,9.388,2.462,13.543,5.233c8.157,5.694,13.082,14.928,13.082,24.778C527.886,348.936,522.962,358.17,514.805,363.71z"
			/>
	</g>
	<path fill="#FFFFFF" d="M732.731,285.455c-14.071-0.049-27.829,5.201-37.845,15.304c-10.03,10.117-15.154,23.929-15.203,37.975
		c-0.048,14.048,4.981,27.896,14.941,38.083c9.946,10.172,23.668,15.517,37.74,15.565c14.07,0.049,27.829-5.201,37.845-15.304
		c10.03-10.117,15.154-23.929,15.201-37.975c0.049-14.048-4.981-27.896-14.941-38.084
		C760.524,290.848,746.803,285.502,732.731,285.455z M760.931,345.185c-0.372,1.964-0.924,3.895-1.661,5.753
		c-0.699,1.766-1.566,3.468-2.602,5.06c-0.994,1.531-2.142,2.962-3.426,4.258c-1.278,1.29-2.693,2.445-4.21,3.446
		c-1.565,1.034-3.237,1.901-4.977,2.601c-1.813,0.728-3.698,1.274-5.619,1.637c-1.972,0.374-3.981,0.555-5.989,0.549
		c-2.008-0.007-4.014-0.204-5.986-0.591c-1.916-0.376-3.799-0.934-5.606-1.675c-1.735-0.71-3.402-1.591-4.959-2.635
		c-1.509-1.012-2.915-2.178-4.186-3.475c-1.276-1.305-2.415-2.745-3.398-4.281c-1.023-1.601-1.88-3.309-2.568-5.08
		c-0.725-1.863-1.261-3.799-1.621-5.765c-0.37-2.033-0.551-4.101-0.544-6.168c0.007-2.067,0.201-4.133,0.587-6.165
		c0.372-1.965,0.924-3.895,1.659-5.753c0.701-1.766,1.568-3.468,2.602-5.06c0.994-1.531,2.142-2.962,3.427-4.258
		c1.28-1.29,2.695-2.445,4.211-3.446c1.563-1.034,3.237-1.901,4.975-2.601c1.813-0.728,3.7-1.274,5.62-1.637
		c1.973-0.374,3.981-0.557,5.989-0.549c2.008,0.007,4.016,0.204,5.986,0.591c1.918,0.376,3.799,0.934,5.608,1.675
		c1.735,0.71,3.402,1.59,4.958,2.635c1.509,1.012,2.917,2.176,4.188,3.475c1.276,1.305,2.413,2.745,3.396,4.282
		c1.025,1.601,1.881,3.309,2.568,5.08c0.725,1.863,1.263,3.799,1.621,5.765c0.372,2.033,0.552,4.101,0.546,6.168
		C761.511,341.088,761.316,343.153,760.931,345.185z"/>
	<path fill="#FFFFFF" d="M1164.183,335.929c-0.018,2.814-0.031,5.722-0.215,8.532c-0.121,1.813-0.32,3.654-0.654,5.442
		c-0.633,3.362-1.735,6.598-3.597,9.513c-4.515,7.074-12.443,10.549-20.507,10.652c-8.193,0.103-15.986-3.256-20.372-10.583
		c-1.776-2.966-2.816-6.225-3.463-9.578c-0.869-4.504-1.077-9.221-1.188-13.774c-0.07-2.971-0.092-5.94-0.105-8.911
		c-0.025-5.057-0.023-10.307-0.025-15.364c-0.002-8.034-0.002-16.295-0.002-24.295c-8.107,0-16.213,0-24.319,0
		c0,8-0.011,33.198,0.038,41.517c0.023,3.98,0.058,8.057,0.181,12.037c0.09,2.91,0.228,5.861,0.486,8.762
		c0.615,6.886,1.885,13.615,5.024,19.93c6.436,12.948,18.932,20.446,32.866,22.094c6.839,0.81,13.857,0.205,20.459-1.734
		c6.34-1.862,13.067-5.192,17.781-10.063c0.228,3.277,0.457,6.657,0.685,9.857c7.093,0,14.827,0,21.227,0c0-33.6,0-68.8,0-102.4
		c-8,0-16.16,0-24.266,0C1164.215,293.963,1164.226,329.388,1164.183,335.929z"/>
	<path fill="#FFFFFF" d="M1294.738,349.859c-3.535-9.891-12.167-15.948-21.245-19.508c-5.131-2.012-10.414-3.255-15.76-4.439
		c-2.346-0.521-4.693-1.028-7.02-1.643c-1.999-0.528-3.958-1.122-5.863-1.95c-2.026-0.882-4.104-2.087-5.543-3.873
		c-1.211-1.502-1.854-3.313-1.623-5.274c0.273-2.315,1.657-4.209,3.394-5.603c1.223-0.981,2.545-1.681,4-2.243
		c1.881-0.725,3.786-1.135,5.78-1.365c3.965-0.457,8.015-0.134,11.896,0.676c5.879,1.229,11.339,3.569,16.436,6.68
		c4.054-5.556,8.107-11.109,12.163-16.665c-8.124-5.856-17.354-9.633-27.258-11.128c-5.527-0.831-11.169-0.931-16.718-0.199
		c-4.331,0.573-8.431,1.598-12.472,3.288c-5.346,2.236-10.057,5.463-13.752,10.014c-2.651,3.264-4.599,7.014-5.714,11.073
		c-1.375,5.013-1.417,10.309,0.163,15.31c1.451,4.596,4.133,8.503,7.75,11.643c7.582,6.58,18.169,8.97,27.281,10.938
		c3.19,0.689,6.383,1.348,9.526,2.25c2.548,0.73,5.205,1.664,7.507,3.045c1.809,1.083,3.474,2.487,4.58,4.343
		c0.938,1.574,1.391,3.352,1.211,5.192c-0.166,1.708-0.857,3.275-1.898,4.614c-1.236,1.592-2.892,2.787-4.672,3.663
		c-2.342,1.153-4.918,1.778-7.479,2.1c-3.559,0.45-7.285,0.352-10.829-0.083c-3.956-0.484-7.728-1.399-11.464-2.789
		c-5.713-2.124-10.709-5.104-15.507-8.802c-4.325,5.776-8.648,11.55-12.971,17.327c7.723,6.412,16.443,11.111,26.123,13.855
		c5.352,1.518,10.692,2.371,16.251,2.577c4.47,0.164,8.84-0.096,13.25-0.864c5.635-0.981,11.169-2.771,16.123-5.74
		c3.627-2.172,6.786-4.894,9.373-8.258c3.323-4.325,5.501-9.463,6.259-14.869C1296.644,358.672,1296.27,354.146,1294.738,349.859z"
		/>
	<path fill="#FFFFFF" d="M864.109,367.582c-5.671,1.267-11.713,1.104-17.271-0.712c-5.63-1.84-10.424-5.268-13.855-10.132
		c-3.381-4.791-5.153-10.578-5.471-16.363c-0.316-5.736,0.797-11.769,3.492-16.907c2.839-5.415,7.055-9.17,12.637-11.572
		c2.377-1.025,4.793-1.717,7.343-2.145c3.28-0.551,6.474-0.616,9.774-0.217c5.903,0.716,11.285,2.856,16.251,6.029
		c4.887-6.204,9.776-12.407,14.663-18.612c-8.46-6.665-18.006-10.526-28.709-11.668c-10.359-1.106-21.171,0.492-30.646,4.99
		c-9.664,4.587-17.312,11.874-22.353,21.312c-4.945,9.257-7.039,19.967-6.541,30.359c0.501,10.43,3.625,20.809,9.689,29.461
		c6.139,8.764,14.749,14.975,24.807,18.418c9.884,3.383,20.814,3.953,31.008,1.795c10.314-2.183,19.817-7.134,27.164-14.833
		c-5.557-5.736-11.117-11.473-16.674-17.209C875.117,363.591,869.829,366.304,864.109,367.582z"/>
	<rect x="1038.082" y="246.592" fill="#FFFFFF" width="25.6" height="143.371"/>
	<path fill="#FFFFFF" d="M985.54,335.929c-0.018,2.814-0.031,5.722-0.215,8.532c-0.121,1.813-0.32,3.654-0.654,5.442
		c-0.632,3.362-1.735,6.598-3.596,9.513c-4.515,7.074-12.443,10.549-20.507,10.652c-8.193,0.103-15.986-3.256-20.372-10.583
		c-1.777-2.966-2.816-6.225-3.463-9.578c-0.87-4.504-1.077-9.221-1.188-13.774c-0.07-2.971-0.092-5.94-0.105-8.911
		c-0.025-5.057-0.023-10.307-0.025-15.364c-0.002-8.034-0.002-16.295-0.002-24.295c-8.106,0-16.212,0-24.319,0
		c0,8-0.011,33.198,0.037,41.517c0.024,3.98,0.058,8.057,0.181,12.037c0.09,2.91,0.228,5.861,0.486,8.762
		c0.615,6.886,1.885,13.615,5.024,19.93c6.436,12.948,18.932,20.446,32.866,22.094c6.839,0.81,13.857,0.205,20.459-1.734
		c6.34-1.862,13.067-5.192,17.78-10.063c0.228,3.277,0.457,6.657,0.685,9.857c7.093,0,14.27,0,20.67,0c0-33.6,0-68.8,0-102.4
		c-8,0-15.603,0-23.709,0C985.572,293.963,985.583,329.388,985.54,335.929z"/>
	<path fill="#FFFFFF" d="M1398.224,390.498h-23.991V288.002h23.991v22.231c3.199-7.317,7.705-13.283,13.405-17.742
		c5.938-4.647,13.525-6.808,22.562-6.423l0.191,0.008v25.144h-1.554c-5.103,0-9.827,0.841-14.041,2.498
		c-4.209,1.661-7.892,4.181-10.948,7.492c-3.063,3.32-5.456,7.556-7.112,12.592c-1.661,5.047-2.503,10.978-2.503,17.63V390.498z"/>
	<path fill="#FFFFFF" d="M1796.522,348.575c-3.535-9.891-12.167-15.948-21.245-19.508c-5.131-2.012-10.414-3.255-15.76-4.439
		c-2.346-0.521-4.693-1.028-7.02-1.643c-1.999-0.528-3.958-1.122-5.863-1.95c-2.026-0.882-4.104-2.087-5.543-3.873
		c-1.211-1.502-1.854-3.313-1.623-5.274c0.273-2.315,1.657-4.209,3.394-5.603c1.223-0.981,2.545-1.681,4-2.243
		c1.881-0.725,3.786-1.135,5.78-1.365c3.965-0.457,8.015-0.134,11.896,0.676c5.879,1.229,11.339,3.569,16.436,6.68
		c4.054-5.556,8.107-11.109,12.163-16.665c-8.124-5.856-17.354-9.633-27.258-11.128c-5.527-0.831-11.169-0.931-16.718-0.199
		c-4.331,0.573-8.431,1.598-12.472,3.288c-5.346,2.236-10.057,5.463-13.752,10.014c-2.651,3.264-4.599,7.014-5.714,11.073
		c-1.375,5.013-1.417,10.309,0.163,15.31c1.451,4.596,4.133,8.503,7.75,11.643c7.582,6.58,18.169,8.97,27.281,10.938
		c3.19,0.689,6.383,1.348,9.526,2.25c2.548,0.73,5.205,1.664,7.507,3.045c1.809,1.083,3.474,2.487,4.58,4.343
		c0.938,1.574,1.391,3.352,1.211,5.192c-0.166,1.708-0.857,3.275-1.898,4.614c-1.236,1.592-2.892,2.787-4.672,3.663
		c-2.342,1.153-4.918,1.778-7.479,2.1c-3.559,0.45-7.285,0.352-10.829-0.083c-3.956-0.484-7.728-1.399-11.464-2.789
		c-5.713-2.124-10.709-5.104-15.507-8.802c-4.325,5.776-8.648,11.55-12.971,17.327c7.723,6.412,16.443,11.111,26.123,13.855
		c5.352,1.518,10.692,2.371,16.251,2.577c4.47,0.164,8.84-0.096,13.25-0.864c5.635-0.981,11.169-2.771,16.123-5.74
		c3.627-2.172,6.786-4.894,9.373-8.258c3.323-4.325,5.501-9.463,6.259-14.869C1798.429,357.388,1798.055,352.862,1796.522,348.575z"
		/>
	<g>
		<path fill="#FFFFFF" d="M1476.233,390.498h-23.99V288.002h23.99V390.498z"/>
	</g>
	<g>
		<path fill="#FFFFFF" d="M1537.002,390.498h-23.99v-81.986h-19.361v-19.93h19.361v-7.147c0-11.347,2.841-19.917,8.444-25.473
			c5.472-5.427,13.302-8.178,23.274-8.178c4.106,0,7.696,0.261,10.67,0.777c2.961,0.516,5.766,1.167,8.338,1.938l0.142,0.044v20.15
			l-0.263-0.089c-2.289-0.762-4.527-1.378-6.648-1.831c-2.109-0.445-4.47-0.672-7.016-0.672c-8.849,0-13.336,5.137-13.336,15.269
			v5.408h27.071v19.736h-26.684V390.498z"/>
	</g>
	<g>
		<path fill="#FFFFFF" d="M1624.72,392.238c-4.251,0-8.254-0.523-11.898-1.555c-3.649-1.033-6.856-2.739-9.533-5.069
			c-2.677-2.331-4.761-5.448-6.195-9.266c-1.432-3.802-2.158-8.606-2.158-14.283v-53.555h-18.961v-20.509h18.961v-28.037h23.99
			v28.037h27.458v20.509h-27.458v49.881c0,4.434,1.084,7.67,3.222,9.616c2.141,1.956,5.219,2.947,9.147,2.947
			c4.972,0,9.821-1.164,14.413-3.459l0.289-0.145v19.583l-0.102,0.056c-2.967,1.678-6.171,2.987-9.521,3.889
			C1633.012,391.78,1629.091,392.238,1624.72,392.238z"/>
	</g>
	<g>
		<circle fill="#FFFFFF" cx="1464.226" cy="261.124" r="12.998"/>
	</g>
</g>
</svg>
